<?xml version="1.0" standalone="no"?>
<?xml-stylesheet type="text/css" href="handson.css" ?>
<svg xmlns="http://www.w3.org/2000/svg" width="750" height="500" viewBox="-50 -50 750 750" xmlns:xlink="http://www.w3.org/1999/xlink" transform="scale(2) translate(200,100)">
<!-- draw background grid -->
<path class="thin" style="stroke-opacity:0.2" d="M0,0
h750v10h-750v10h750v10h-750v10
h750v10h-750v10h750v10h-750v10
h750v10h-750v10h750v10h-750v10
h750v10h-750v10h750v10h-750v10
h750v10h-750v10h750v10h-750v10
h750v10h-750v10h750v10h-750v10
h750v10h-750v10h750v10h-750v10
h750v10h-750v10h750v10h-750v10
h750v10h-750v10h750v10h-750v10
h750v10h-750v10h750v10h-750v10
h750v10h-750v10h750v10h-750v10
h750v10h-750v10h750v10h-750v10
h750v10h-750v10
h750v-500h-750v500
h10v-500h10v500h10v-500h10v500
h10v-500h10v500h10v-500h10v500
h10v-500h10v500h10v-500h10v500
h10v-500h10v500h10v-500h10v500
h10v-500h10v500h10v-500h10v500
h10v-500h10v500h10v-500h10v500
h10v-500h10v500h10v-500h10v500
h10v-500h10v500h10v-500h10v500
h10v-500h10v500h10v-500h10v500
h10v-500h10v500h10v-500h10v500
h10v-500h10v500h10v-500h10v500
h10v-500h10v500h10v-500h10v500
h10v-500h10v500h10v-500h10v500
h10v-500h10v500h10v-500h10v500
h10v-500h10v500h10v-500h10v500
h10v-500h10v500h10v-500h10v500
h10v-500h10v500h10v-500h10v500
h10v-500h10v500h10v-500h10v500
h10v-500h10v500" />
<path class="outline" style="stroke-opacity:0.2" d="M0,0
h750v50h-750v50h750v50h-750v50
h750v50h-750v50h750v50h-750v50
h750v50h-750v50
h750v-500h-750v500
h50v-500h50v500h50v-500h50v500
h50v-500h50v500h50v-500h50v500
h50v-500h50v500h50v-500h50v500
h50v-500h50v500h50
"/>
<text x="0" style="text-anchor:middle;font-size:10px">
<tspan x="50" y="10">50</tspan>
<tspan x="100" y="10">100</tspan>
<tspan x="150" y="10">150</tspan>
<tspan x="200" y="10">200</tspan>
<tspan x="250" y="10">250</tspan>
<tspan x="300" y="10">300</tspan>
<tspan x="350" y="10">350</tspan>
<tspan x="400" y="10">400</tspan>
<tspan x="450" y="10">450</tspan>
<tspan x="500" y="10">500</tspan>
<tspan x="550" y="10">550</tspan>
<tspan x="600" y="10">600</tspan>
<tspan x="650" y="10">650</tspan>
<tspan x="700" y="10">700</tspan>
</text>
<text style="text-anchor:start;font-size:10px">
<tspan x="730" y="53">50</tspan>
<tspan x="730" y="103">100</tspan>
<tspan x="730" y="153">150</tspan>
<tspan x="730" y="203">200</tspan>
<tspan x="730" y="253">250</tspan>
<tspan x="730" y="303">300</tspan>
<tspan x="730" y="353">350</tspan>
<tspan x="730" y="403">400</tspan>
<tspan x="730" y="453">450</tspan>

</text>

<defs>
<!-- /////////////////////////////////////////////////// -->
<!-- BAAAAAAAAAAAAM -->
<!-- /////////////////////////////////////////////////// -->
  <g id="bam_piece">
    <polygon stroke-width="4" points="100,150 120,180 100,180 130,230 100,245 140,275 100,330 170,330 175,370 240,350 245,420 285,355 345,390 375,315 420,360 420,310 505,315 480,265 520,250 490,215 540,160 460,150 467,90 385,130 370,100 335,130 280,80 255,145 220,130 200,170"/>
  </g>

  <g id="bam">
    <use xlink:href="#bam_piece" transform="translate(3, 10)" fill="yellow"/>
    <use xlink:href="#bam_piece" fill="red"/>
    <use xlink:href="#bam_piece" transform="translate(-15, -10) scale(1.05)" fill="transparent" stroke="black" stroke-width="" />
    <text
      transform="translate(-125,125)"
      fill="black"
      x="250" y="150"
      font-family="Verdana"
      font-size="130"
      font-weight="bold">
      BAM!
  </text>
    <text
        transform="translate(-125,125)"
        fill="yellow"
        x="250" y="150"
        font-family="Verdana"
        font-size="120"
        font-weight="bold">
        BAM!
    </text>
  </g>

<!-- /////////////////////////////////////////////////// -->
<!-- FINISH LINE -->
<!-- /////////////////////////////////////////////////// -->
<g id="finish" transform="translate(100,100)">
        <!-- Frame + piliar lower side-->
        <rect width="260" height="20" />
        <rect width="20" height="250" />
        <rect x="260" y="0" width="20" height="250" />
        <rect x="0" y="100" width="260" height="20" />

        <!-- Inner Pattern -->
        <rect x="20" y="20" width="40" height="40"/>
        <rect x="100" y="20" width="40" height="40"/>
        <rect x="180" y="20" width="40" height="40"/>
        <rect x="60" y="60" width="40" height="40"/>
        <rect x="140" y="60" width="40" height="40"/>
        <rect x="220" y="60" width="40" height="40"/>

        <!-- Piliar : up side -->
        <rect x="0" y="-20" width="20" height="50" />
        <rect x="260" y="-20" width="20" height="50" />

        <rect x="-20" y="250" width="320" height="1" />

    </g>
<!-- /////////////////////////////////////////////////// -->
<!-- BACKGROUND -->
<!-- /////////////////////////////////////////////////// -->
<linearGradient id="grad_ground" x1="0%" y1="0%" x2="0%" y2="100%">
    <stop offset="0%" style="stop-color:snow;stop-opacity:1" />
    <stop offset="85%" style="stop-color:lightcyan;stop-opacity:1" />
</linearGradient>
  <g id="background">
    <rect x="-400" y="-400" width="1500" height="1500" fill="url(#grad_ground)"/>
  </g>

<!-- /////////////////////////////////////////////////// -->
<!-- SKY -->
<!-- /////////////////////////////////////////////////// -->
<linearGradient id="grad_sky" x1="0%" y1="0%" x2="0%" y2="100%">
    <stop offset="0%" style="stop-color:royalblue;stop-opacity:1" />
    <stop offset="50%" style="stop-color:#a8d3fe;stop-opacity:1" />
</linearGradient>
  <g id="sky">
    <rect x="-400" y="-200" width="1500" height="200" fill="url(#grad_sky)">
    <animate attributeName="height" from="200" to="2000" begin="2s" dur="8s" fill="freeze"/>
    <animate id="skyEnd" attributeName="height" from="2000" to="200" begin="12s" dur="8s" fill="freeze"/>
  </rect>
  </g>

<!-- /////////////////////////////////////////////////// -->
<!-- SUN -->
<!-- /////////////////////////////////////////////////// -->
<radialGradient id="SunGradient">
          <stop offset="0%" stop-color="#e7a900" />
          <stop offset="100%" stop-color="#ffe341"/>
      </radialGradient>
      <g id="flame">
          <polygon points="-10,-25 10,-25 -0,-35" fill="yellow"/>
      </g>
      <g id="flames">
          <use xlink:href="#flame"/>
          <use xlink:href="#flame" transform="rotate(45)"/>
          <use xlink:href="#flame" transform="rotate(90)"/>
          <use xlink:href="#flame" transform="rotate(135)"/>
          <use xlink:href="#flame" transform="rotate(180)"/>
          <use xlink:href="#flame" transform="rotate(225)"/>
          <use xlink:href="#flame" transform="rotate(270)"/>
          <use xlink:href="#flame" transform="rotate(315)"/>
      </g>
      <g id="sun">
          <circle cx="0" cy="0" r="20" fill="url(#SunGradient)"/>
          <use xlink:href="#flames"/>
      </g>

<!-- /////////////////////////////////////////////////// -->
<!-- TREES -->
<!-- /////////////////////////////////////////////////// -->
  <g id="tree" transform="translate(-100,-50)">
    <polygon points="100,100 65,150 135,150" fill="#0DBE63" />
    <polygon points="100,75 70,125 130,125" fill="#1EDB7A" />
    <polygon points="100,50 75,100 125,100" fill="#33FF95" />
    <rect x="90" y="150" width="20" height="10" fill="brown" />
  </g>
  <g id="snowyTree">
        <polygon points="100,100 65,150 135,150" fill="#0DBE63"/>
        <polygon points="100,75 70,125 130,125" fill="#1EDB7A" />
        <polygon points="100,50 75,100 125,100" fill="#33FF95" />
        <rect x="90" y="150" width="20" height="10" fill="brown" />
        <polygon points="100,50 83,85 118,85" fill="white" />
  </g>
<!-- /////////////////////////////////////////////////// -->
<!-- CLOUDS -->
<!-- /////////////////////////////////////////////////// -->
<g id="cloud3" transform="translate(0,-105)">
        <circle cx="75" cy="150" r="45" fill="white" />
        <circle cx="140" cy="150" r="30" fill="white" />
        <circle cx="50" cy="200" r="30" fill="white" />
        <circle cx="100" cy="200" r="40" fill="white" />
        <circle cx="150" cy="200" r="45" fill="white"/>
        <circle cx="195" cy="160" r="30" fill="white" />
        <circle cx="200" cy="200" r="35" fill="white" />
        <circle cx="235" cy="200" r="35" fill="white" />
        <circle cx="260" cy="210" r="20" fill="white" />
    </g>
    <g id="cloud2" transform="translate(0,-105)">
        <circle cx="75" cy="150" r="45" fill="white" />
        <circle cx="140" cy="150" r="30" fill="white" />
        <circle cx="50" cy="200" r="50" fill="white" />
        <circle cx="100" cy="200" r="50" fill="white" />
        <circle cx="150" cy="200" r="50" fill="white"/>
        <circle cx="200" cy="150" r="45" fill="white" />
        <circle cx="200" cy="200" r="35" fill="white" />
    </g>
    <g id="cloud" transform="translate(0,-105)" >
        <circle cx="75" cy="150" r="45" fill="white" />
        <circle cx="140" cy="150" r="30" fill="white" />
        <circle cx="50" cy="200" r="50" fill="white" />
        <circle cx="100" cy="200" r="50" fill="white" />
        <circle cx="150" cy="200" r="50" fill="white"/>
    </g>
<!-- /////////////////////////////////////////////////// -->
<!-- PERSON -->
<!-- /////////////////////////////////////////////////// -->
    <g id="personWithoutSticks" >
        <ellipse rx="45" ry="75" fill="chartreuse"/> <!-- body -->
        <circle cx="0" cy="-90" r="30" fill="tan"/> <!-- head -->
        <ellipse cx="-20" cy="75" rx="15" ry="45" fill="darkslategrey"/> <!-- legs -->
        <ellipse cx="20" cy="75" rx="15" ry="45" fill="darkslategrey"/> <!-- legs -->
        <ellipse cx="50" cy="-10" rx="20" ry="45" transform="rotate(-145)"/> <!-- arms -->
        <ellipse cx="-50" cy="-10" rx="20" ry="45" transform="rotate(145)"/> <!-- arms -->

    </g>
    <g id="sticks">
      <rect x="60" y="-40" width="10" height="150" fill="grey"/> <!-- sticks -->
      <rect x="-70" y="-40" width="10" height="150" fill="grey"/> <!-- sticks -->
    </g>
    <g id="skis">
      <ellipse cx="20" cy="110" rx="10" ry="45" fill="red" transform="rotate(20)"/>
      <ellipse cx="-20" cy="110" rx="10" ry="45" fill="red" transform="rotate(-20)" />

    </g>
    <g id="person" transform="scale(0.75)">
      <use xlink:href="#sticks"/>
      <use xlink:href="#skis"/>
      <use xlink:href="#personWithoutSticks"/>
    </g>
    <!-- /////////////////////////////////////////////////// -->
    <!-- FALLING PERSON -->
    <!-- /////////////////////////////////////////////////// -->
    <g id="body" fill="chartreuse">
        <ellipse rx="80" ry="55" />
    </g>

    <g id="arms">
        <circle cx="-100" cy="0" r="20"/>
        <circle cx="100" cy="0" r="20"/>
    </g>

    <g id="personFromBelow">
        <use xlink:href="#body"/>
        <use xlink:href="#arms"/>

    </g>
    <g id="ski">
        <circle cx="100" cy="55" r="10" fill="darkred"/>
        <rect width="20" height="175" x="90" y="60" fill="red"/>
        <circle cx="100" cy="230" r="10" fill="darkred"/>
    </g>
    <g id="twoSkis">
        <use x="0" y="0" xlink:href="#ski"/>
        <use x="100" y="0" xlink:href="#ski"/>
    </g>
    <g id="fallingPerson">
        <use x="150" y="150" xlink:href="#personFromBelow"/>
        <use x="0" y="0" xlink:href="#twoSkis"/>
    </g>
    <!-- /////////////////////////////////////////////////// -->
    <!-- SPEED FOR THE FALLING PERSON -->
    <!-- /////////////////////////////////////////////////// -->
    <g id="speedLeft1">
      <line x1="0" y1="180" x2="0" y2="280" stroke="black" />
      <line x1="-50" y1="100" x2="-50" y2="350" stroke="black" />
    </g>
    <g id="speedLeft2">
      <line x1="30" y1="10" x2="30" y2="140" stroke="black" />
      <line x1="-30" y1="40" x2="-30" y2="250" stroke="black" />
    </g>
    <g id="speedRight1">
      <line x1="310" y1="150" x2="310" y2="280" stroke="black" />
      <line x1="360" y1="80" x2="360" y2="350" stroke="black" />
    </g>
    <g id="speedRight2">
      <line x1="330" y1="0" x2="330" y2="140" stroke="black" />
      <line x1="380" y1="20" x2="380" y2="240" stroke="black" />
    </g>

    <g id="speedyThings1">
      <use xlink:href="#speedRight1"/>
      <use xlink:href="#speedLeft1"/>
    </g>
    <g id="speedyThings2">
      <use xlink:href="#speedRight2"/>
      <use xlink:href="#speedLeft2"/>
    </g>
<!-- /////////////////////////////////////////////////// -->
<!-- VICTIM/CASUALTY -->
<!-- /////////////////////////////////////////////////// -->
  <g id="victim" transform="rotate(0.75) scale(0.75)">
    <ellipse rx="45" ry="75" fill="lightpink"/> <!-- body -->
    <circle cx="0" cy="-90" r="30" fill="tan"/> <!-- head -->
    <ellipse cx="-20" cy="75" rx="15" ry="45" fill="lightcoral"/> <!-- legs -->
    <ellipse cx="20" cy="75" rx="15" ry="45" fill="lightcoral"/> <!-- legs -->
    <ellipse cx="50" cy="-10" rx="20" ry="45" transform="rotate(-145)"/> <!-- arms -->
    <ellipse cx="-50" cy="-10" rx="20" ry="45" transform="rotate(145)"/> <!-- arms -->
  </g>

<!-- /////////////////////////////////////////////////// -->
<!-- PATH PERSON -->
<!-- /////////////////////////////////////////////////// -->
  <path id="pathPerson" d="M50,550 C50,450 250,350 350,550 S650,350 650,550" fill="none" stroke="black"/>

<!-- /////////////////////////////////////////////////// -->
<!-- RAMPE -->
<!-- /////////////////////////////////////////////////// -->

  <g id="rampe">
    <path d="M250,0 Q 300,300 -300,700" fill="none" stroke="black"/> <!-- position de départ x y, position point de contrôle x y et point d'arrivée x y -->
    <path d="M500,0 Q 450,300 900,650" fill="none" stroke="black"/> <!-- position de départ x y, position point de contrôle x y et point d'arrivée x y -->
    <animate attributeType="CSS" attributeName="opacity" from="1" to="0" begin="skyEnd.begin" dur="1s" fill="freeze"/>
  </g>

<!-- /////////////////////////////////////////////////// -->
<!-- PATHS TREES -->
<!-- /////////////////////////////////////////////////// -->
  <path id="pathTreesLeft" d="M200,0 Q 250,300 -600,500" fill="none" stroke="black"/>  <!-- -50x départ, -50x pos contrôle, -300x -200y arrivée-->
  <path id="pathTreesRight" d="M550,0 Q 500,300 1350,500" fill="none" stroke="black"/>  <!-- +50x départ, +50x pos contrôle, +450x -150y arrivée-->

<!-- /////////////////////////////////////////////////// -->
<!-- LEFT TREEEEEEEEEES ANIMATIONS-->
<!-- /////////////////////////////////////////////////// -->
  <g id="growingMovingTreesLeft">
    <use xlink:href="#tree"/>
    <use xlink:href="#snowyTree" transform="translate(-200,-50)"/>
    <use xlink:href="#tree" transform="translate(-100,-150)"/>
    <animateMotion fill="none" stroke="black" begin="0s" dur="4s" repeatCount="indefinite">
      <mpath xlink:href="#pathTreesLeft"/>
    </animateMotion>
		<animateTransform attributeName="transform" type="scale" from="1 1" to="2 2" begin="0s" dur="4s" repeatCount="indefinite"/>
    <animate attributeType="CSS" attributeName="opacity" from="1" to="0" begin="skyEnd.begin" dur="1s" fill="freeze"/>
	</g>
  <g id="growingMovingTreesLeft2">
    <use xlink:href="#tree"/>
    <use xlink:href="#tree" transform="translate(-200,-50)"/>
    <use xlink:href="#snowyTree" transform="translate(-150,-150)"/>
    <animateMotion fill="none" stroke="black" begin="1.5s" dur="4s" repeatCount="indefinite">
      <mpath xlink:href="#pathTreesLeft"/>
    </animateMotion>
    <set attributeType="CSS" attributeName="visibility" to="hidden" begin="0s" dur="1.5s"/>
    <animateTransform attributeName="transform" type="scale" from="1 1" to="2 2" begin="1.5s" dur="4s" repeatCount="indefinite"/>
    <animate attributeType="CSS" attributeName="opacity" from="1" to="0" begin="skyEnd.begin" dur="1s" fill="freeze"/>
	</g>

  <g id="growingMovingTreesLeft3">
    <use xlink:href="#snowyTree" transform="translate(-100,-50)"/>
    <use xlink:href="#tree" transform="translate(-200,-50)"/>
    <use xlink:href="#tree" transform="translate(-150,-100)"/>
    <use xlink:href="#snowyTree" transform="translate(-150,-250)"/>
    <animateMotion fill="none" stroke="black" begin="3s" dur="4s" repeatCount="indefinite">
      <mpath xlink:href="#pathTreesLeft"/>
    </animateMotion>
    <set attributeType="CSS" attributeName="visibility" to="hidden" begin="0s" dur="3s"/>
    <animateTransform attributeName="transform" type="scale" from="1 1" to="2 2" begin="3s" dur="4s" repeatCount="indefinite"/>
    <animate attributeType="CSS" attributeName="opacity" from="1" to="0" begin="skyEnd.begin" dur="1s" fill="freeze"/>
	</g>
<!-- /////////////////////////////////////////////////// -->
<!-- RIGHT TREEEEEEEEEES ANIMATIONS-->
<!-- /////////////////////////////////////////////////// -->
<g id="growingMovingTreesRight">
  <use xlink:href="#tree"/>
  <use xlink:href="#snowyTree" transform="translate(200,-50)"/>
  <use xlink:href="#tree" transform="translate(100,-100)"/>
  <animateMotion fill="none" stroke="black" begin="0s" dur="4s" repeatCount="indefinite">
    <mpath xlink:href="#pathTreesRight"/>
  </animateMotion>
  <animateTransform attributeName="transform" type="scale" from="1 1" to="2 2" begin="0s" dur="4s" repeatCount="indefinite"/>
  <animate attributeType="CSS" attributeName="opacity" from="1" to="0" begin="skyEnd.begin" dur="1s" fill="freeze"/>
</g>

<g id="growingMovingTreesRight2">
  <use xlink:href="#tree"/>
  <use xlink:href="#tree" transform="translate(200,-50)"/>
  <use xlink:href="#snowyTree" transform="translate(150,-10)"/>
  <animateMotion fill="none" stroke="black" begin="1.5s" dur="4s" repeatCount="indefinite">
    <mpath xlink:href="#pathTreesRight"/>
  </animateMotion>
  <set attributeType="CSS" attributeName="visibility" to="hidden" begin="0s" dur="1.5s"/>
  <animateTransform attributeName="transform" type="scale" from="1 1" to="2 2" begin="1.5s" dur="4s" repeatCount="indefinite"/>
  <animate attributeType="CSS" attributeName="opacity" from="1" to="0" begin="skyEnd.begin" dur="1s" fill="freeze"/>
</g>

<g id="growingMovingTreesRight3">
  <use xlink:href="#snowyTree" transform="translate(-100,-50)"/>
  <use xlink:href="#tree" transform="translate(200,-50)"/>
  <use xlink:href="#tree" transform="translate(150,-100)"/>
  <use xlink:href="#snowyTree" transform="translate(150,-200)"/>
  <animateMotion fill="none" stroke="black" begin="3s" dur="4s" repeatCount="indefinite">
    <mpath xlink:href="#pathTreesRight"/>
  </animateMotion>
  <set attributeType="CSS" attributeName="visibility" to="hidden" begin="0s" dur="3s"/>
  <animateTransform attributeName="transform" type="scale" from="1 1" to="2 2" begin="3s" dur="4s" repeatCount="indefinite"/>
  <animate attributeType="CSS" attributeName="opacity" from="1" to="0" begin="skyEnd.begin" dur="1s" fill="freeze"/>
</g>

<!-- /////////////////////////////////////////////////// -->
<!-- CLOUDS ANIMATIONS-->
<!-- /////////////////////////////////////////////////// -->
    <g id="movingClouds">
        <use x="-400" y="0" xlink:href="#cloud2" />
        <use x="-200" y="50" xlink:href="#cloud" />
        <use xlink:href="#cloud3"/>
        <use x="300" y="50" xlink:href="#cloud2" />
        <use x="600" y="0" xlink:href="#cloud" />
        <use x="800" y="80" xlink:href="#cloud2" />
        <use x="1050" xlink:href="#cloud3"/>
        <use x="1350" y="80" xlink:href="#cloud" />

    </g>
    <g id="cloudsAnimation">
        <use xlink:href="#movingClouds" />
        <set attributeType="CSS" attributeName="visibility" to="hidden" begin="0s" dur="2s"/>
        <animate attributeType="CSS" attributeName="opacity" from="0" to="1" begin="2s" dur="3s" fill="freeze"/>
        <animateTransform attributeName="transform" type="scale" from="1 1" to="15 15" begin="5s" dur="5s" fill="freeze"/>
        <animate attributeType="CSS" attributeName="opacity" from="1" to="0" begin="6s" dur="2s" fill="freeze"/>
    </g>
<!-- /////////////////////////////////////////////////// -->
<!-- SUN ANIMATIONS-->
<!-- /////////////////////////////////////////////////// -->
<g id="sunAnimation">
    <use xlink:href="#sun" transform="translate(-100,50)"/>
    <set attributeType="CSS" attributeName="visibility" to="hidden" begin="0s" dur="2s"/>
    <animate attributeType="CSS" attributeName="opacity" from="0" to="1" begin="2s" dur="3s" fill="freeze"/>
    <animateTransform attributeName="transform" type="scale" from="1 1" to="1.1 1.1" begin="5s" dur="6s" repeatCount="indefinite"/>
    <animate attributeType="CSS" attributeName="opacity" from="1" to="0" begin="skyEnd.begin" dur="1s" fill="freeze"/>
</g>
<!-- /////////////////////////////////////////////////// -->
<!-- PERSON ANIMATIONS-->
<!-- /////////////////////////////////////////////////// -->
  <g id="personMoving">
    <use xlink:href="#person"/>
    <animateMotion calcMode="linear" keyTimes="0;0.10;0.30;0.55;0.70;1" keyPoints="0;0.25;0.50;1;0.50;0" dur="8s" repeatCount="2">
      <mpath xlink:href="#pathPerson"/>
    </animateMotion>
    <animate attributeType="CSS" attributeName="opacity" from="1" to="0" begin="6s" dur="0.5s" fill="freeze"/>
  </g>
  <g id="personReapparing">
    <use xlink:href="#fallingPerson" transform="translate(200,400) scale(0.75)"/>
    <set attributeType="CSS" attributeName="visibility" to="hidden" begin="0s" dur="7s"/>
    <animate id="personFalling" attributeType="CSS" attributeName="opacity" from="0" to="1" begin="7s" dur="0.5s" fill="freeze"/>
  </g>
  <g id="SpeedyAnimation1">
    <use xlink:href="#speedyThings1" transform="translate(200,400) scale(0.75)"/>
    <set attributeType="CSS" attributeName="visibility" to="hidden" begin="0s" dur="7s"/>
    <animate id="noMoreSpeed" attributeType="CSS" attributeName="opacity" from="0" to="1" begin="personFalling.end" dur="1s" repeatCount="9"/>
    <animate attributeType="CSS" attributeName="opacity" from="1" to="0" begin="noMoreSpeed.end" dur="1s" fill="freeze"/>
  </g>
  <g id="SpeedyAnimation2">
    <use xlink:href="#speedyThings2" transform="translate(200,400) scale(0.75)"/>
    <set attributeType="CSS" attributeName="visibility" to="hidden" begin="0s" dur="7s"/>
    <animate attributeType="CSS" attributeName="opacity" from="0" to="1" begin="personFalling.end-1s" dur="1s" repeatCount="9"/>
    <animate attributeType="CSS" attributeName="opacity" from="1" to="0" begin="noMoreSpeed.end" dur="1s" fill="freeze"/>
  </g>
<!-- /////////////////////////////////////////////////// -->
<!-- FINISH LINE ANIMATIONS-->
<!-- /////////////////////////////////////////////////// -->
  <g id="finishLine">
    <use xlink:href="#finish"/>
    <set attributeType="CSS" attributeName="visibility" to="hidden" begin="0s" dur="10s"/>
  </g>
<!-- /////////////////////////////////////////////////// -->
<!-- VICTIM ANIMATIONS-->
<!-- /////////////////////////////////////////////////// -->
  <g id="victimAppearance">
    <use xlink:href="#victim" transform="translate(300,500)"/>
    <set attributeType="CSS" attributeName="visibility" to="hidden" begin="0s" dur="10s"/>
  </g>
  <g id="bamAnimation">
    <use xlink:href="#bam" transform="translate(-100,-100)"/>
    <set attributeType="CSS" attributeName="visibility" to="hidden" begin="0s" dur="20s"/>
    <animate attributeType="CSS" attributeName="opacity" from="0" to="1" begin="skyEnd.end-4s" dur="1s" fill="freeze"/>
    <animateTransform attributeName="transform" type="scale" from="0 0" to="2 2" begin="0s" dur="2.5s" fill="freeze"/>
  </g>
</defs>

 <use xlink:href="#background"/>

<use xlink:href="#rampe"/>
<use xlink:href="#finishLine"/>
<use xlink:href="#victimAppearance"/>


<use xlink:href="#growingMovingTreesLeft"/>
<use xlink:href="#growingMovingTreesLeft2"/>
<use xlink:href="#growingMovingTreesLeft3"/>

<use xlink:href="#growingMovingTreesRight"/>
<use xlink:href="#growingMovingTreesRight2"/>
<use xlink:href="#growingMovingTreesRight3"/>

<use xlink:href="#sky"/>

<use xlink:href="#sunAnimation"/>
<use xlink:href="#cloudsAnimation"/>

<!-- <use xlink:href="#pathTreesRight"/> -->
<!-- <use xlink:href="#pathTreesLeft"/>  -->
<!-- <use xlink:href="#pathPerson"/> -->
<use xlink:href="#personMoving"/>
<use xlink:href="#personReapparing"/>
<use xlink:href="#SpeedyAnimation1"/>
<use xlink:href="#SpeedyAnimation2"/>
<use xlink:href="#bamAnimation"/>

</svg>
